<svg width="900" height="360" viewBox="0 0 900 360" xmlns="http://www.w3.org/2000/svg" xmlns:c2pa="http://c2pa.org/manifest"><metadata><c2pa:manifest>AAAWgmp1bWIAAAAeanVtZGMycGEAEQAQgAAAqgA4m3EDYzJwYQAAABZcanVtYgAAAEdqdW1kYzJtYQARABCAAACqADibcQN1cm46YzJwYTphOWFhZGIxMi1kOTMxLTQ2NmYtODVkYy0yOTdlNWY3M2Y3NzgAAAADl2p1bWIAAAApanVtZGMyYXMAEQAQgAAAqgA4m3EDYzJwYS5hc3NlcnRpb25zAAAAALxqdW1iAAAARGp1bWRjYm9yABEAEIAAAKoAOJtxE2MycGEuaW5ncmVkaWVudC52MwAAAAAYYzJzaIZWZFVJE5JvqcXFMnwuq8AAAABwY2JvcqNpZGM6Zm9ybWF0bWltYWdlL3N2Zyt4bWxqaW5zdGFuY2VJRHgseG1wOmlpZDpjNTk0ZDNlOC1lMTVkLTQxOGUtYWU4Ny03MGRkNjI4OGU2ODdscmVsYXRpb25zaGlwaHBhcmVudE9mAAAB4mp1bWIAAABBanVtZGNib3IAEQAQgAAAqgA4m3ETYzJwYS5hY3Rpb25zLnYyAAAAABhjMnNodFm3y7fIs7H4SxcwGluoPAAAAZljYm9yomdhY3Rpb25zgqJmYWN0aW9ua2MycGEub3BlbmVkanBhcmFtZXRlcnOha2luZ3JlZGllbnRzgaJjdXJseC1zZWxmI2p1bWJmPWMycGEuYXNzZXJ0aW9ucy9jMnBhLmluZ3JlZGllbnQudjNkaGFzaFggORJdlfZHouXl0gB7B2kn5bFmh4CvAmRG/eSJcOVuj3qkZmFjdGlvbngdY29tLmFudGhyb3BpYy5jbGF1ZGUucHJvdmlkZWRqcGFyYW1ldGVyc6F4H2NvbS5hbnRocm9waWMub3JpZ2luLWNvbmZpZGVuY2VndW5rbm93bmtkZXNjcmlwdGlvbnhmQ2xhdWRlIHByb3ZpZGVkIHRoaXMgZmlsZSBhdCB0aGUgcmVxdWVzdCBvZiBhIHVzZXIgYW5kIG1heSBoYXZlIGNyZWF0ZWQgb3IgbW9kaWZpZWQgdGhlIGZpbGUgY29udGVudHMubXNvZnR3YXJlQWdlbnShZG5hbWVmQ2xhdWRlcmFsbEFjdGlvbnNJbmNsdWRlZPUAAADIanVtYgAAAEBqdW1kY2JvcgARABCAAACqADibcRNjMnBhLmhhc2guZGF0YQAAAAAYYzJzaBFaL3Qbs9UEU/mOaJ2p3lwAAACAY2JvcqVjYWxnZnNoYTI1NmNwYWRNAAAAAAAAAAAAAAAAAGRoYXNoWCD3RcO0H8X7OjDpbsPwWB66yWpWF1Jm4j8FcZm88Jve+mRuYW1lbmp1bWJmIG1hbmlmZXN0amV4Y2x1c2lvbnOBomVzdGFydBiWZmxlbmd0aBkeBAAAAj5qdW1iAAAAJ2p1bWRjMmNsABEAEIAAAKoAOJtxA2MycGEuY2xhaW0udjIAAAACD2Nib3KlY2FsZ2ZzaGEyNTZpc2lnbmF0dXJleE1zZWxmI2p1bWJmPS9jMnBhL3VybjpjMnBhOmE5YWFkYjEyLWQ5MzEtNDY2Zi04NWRjLTI5N2U1ZjczZjc3OC9jMnBhLnNpZ25hdHVyZWppbnN0YW5jZUlEeCx4bXA6aWlkOjVmNjQyNDk2LWQyN2QtNDk5NC1iYjQyLTE2NjRlNmQ0Y2JiOXJjcmVhdGVkX2Fzc2VydGlvbnODomN1cmx4LXNlbGYjanVtYmY9YzJwYS5hc3NlcnRpb25zL2MycGEuaW5ncmVkaWVudC52M2RoYXNoWCA5El2V9kei5eXSAHsHaSflsWaHgK8CZEb95Ilw5W6PeqJjdXJseCpzZWxmI2p1bWJmPWMycGEuYXNzZXJ0aW9ucy9jMnBhLmFjdGlvbnMudjJkaGFzaFggeR3Erw9aRk3aJjEnrVew+fMnvIFH0vwZlaSrSW5WjImiY3VybHgpc2VsZiNqdW1iZj1jMnBhLmFzc2VydGlvbnMvYzJwYS5oYXNoLmRhdGFkaGFzaFggNNABQo7c3oDJtCquEvBJ+zFUUiTBFZZ7CARlfmpEY2R0Y2xhaW1fZ2VuZXJhdG9yX2luZm+jZG5hbWVvQW50aHJvcGljIEZpbGVzZ3ZlcnNpb25lMS4wLjBrc3BlY1ZlcnNpb25lMi40LjAAABA4anVtYgAAAChqdW1kYzJjcwARABCAAACqADibcQNjMnBhLnNpZ25hdHVyZQAAABAIY2JvctKEWQISogEmGCFZAgowggIGMIIBjaADAgECAhRA5aAK7sI50L64g/oGQgU9Z1UTADAKBggqhkjOPQQDAzBJMRcwFQYDVQQKEw5BbnRocm9waWMsIFBCQzEuMCwGA1UEAxMlQW50aHJvcGljIENvbnRlbnQgQ3JlZGVudGlhbHMgUm9vdCBDQTAeFw0yNjA4MDcxODQzNTZaFw0yODA4MDYxOTQzNTZaMEQxFzAVBgNVBAoTDkFudGhyb3BpYywgUEJDMSkwJwYDVQQDEyBBbnRocm9waWMgQ2xhdWRlIENvbnRlbnQgU2lnbmluZzBZMBMGByqGSM49AgEGCCqGSM49AwEHA0IABJh6CmvLUBgFFNU0vUKlOVtE6djd17L5SuwX0LemFisBM3dkd/3cyjxFA3Qo5S46fX0/ihY0VZ7mfb9KF703t5OjWDBWMA4GA1UdDwEB/wQEAwIHgDAVBgNVHSUEDjAMBgorBgEEAYPoXgIBMAwGA1UdEwEB/wQCMAAwHwYDVR0jBBgwFoAUzlHiBIFOZFsj+OPEz5o+nMHXXMIwCgYIKoZIzj0EAwMDZwAwZAIwMXMdFJ4BetLLVY7ORuE9noqbbAZOZn/aArXyTwFAZfKrPzxF2vPoJNf1+UCdg1XGAjBwX1zd9WGqYkqmL5SFqw1QySjr1zJfpJM9+1rdDwSPLMOPOjKuiXjoU/pUUeG9RwmhY3BhZFkNngAAAAAAAAAAAAAAAAAAAAAAAAAAAAAAAAAAAAAAAAAAAAAAAAAAAAAAAAAAAAAAAAAAAAAAAAAAAAAAAAAAAAAAAAAAAAAAAAAAAAAAAAAAAAAAAAAAAAAAAAAAAAAAAAAAAAAAAAAAAAAAAAAAAAAAAAAAAAAAAAAAAAAAAAAAAAAAAAAAAAAAAAAAAAAAAAAAAAAAAAAAAAAAAAAAAAAAAAAAAAAAAAAAAAAAAAAAAAAAAAAAAAAAAAAAAAAAAAAAAAAAAAAAAAAAAAAAAAAAAAAAAAAAAAAAAAAAAAAAAAAAAAAAAAAAAAAAAAAAAAAAAAAAAAAAAAAAAAAAAAAAAAAAAAAAAAAAAAAAAAAAAAAAAAAAAAAAAAAAAAAAAAAAAAAAAAAAAAAAAAAAAAAAAAAAAAAAAAAAAAAAAAAAAAAAAAAAAAAAAAAAAAAAAAAAAAAAAAAAAAAAAAAAAAAAAAAAAAAAAAAAAAAAAAAAAAAAAAAAAAAAAAAAAAAAAAAAAAAAAAAAAAAAAAAAAAAAAAAAAAAAAAAAAAAAAAAAAAAAAAAAAAAAAAAAAAAAAAAAAAAAAAAAAAAAAAAAAAAAAAAAAAAAAAAAAAAAAAAAAAAAAAAAAAAAAAAAAAAAAAAAAAAAAAAAAAAAAAAAAAAAAAAAAAAAAAAAAAAAAAAAAAAAAAAAAAAAAAAAAAAAAAAAAAAAAAAAAAAAAAAAAAAAAAAAAAAAAAAAAAAAAAAAAAAAAAAAAAAAAAAAAAAAAAAAAAAAAAAAAAAAAAAAAAAAAAAAAAAAAAAAAAAAAAAAAAAAAAAAAAAAAAAAAAAAAAAAAAAAAAAAAAAAAAAAAAAAAAAAAAAAAAAAAAAAAAAAAAAAAAAAAAAAAAAAAAAAAAAAAAAAAAAAAAAAAAAAAAAAAAAAAAAAAAAAAAAAAAAAAAAAAAAAAAAAAAAAAAAAAAAAAAAAAAAAAAAAAAAAAAAAAAAAAAAAAAAAAAAAAAAAAAAAAAAAAAAAAAAAAAAAAAAAAAAAAAAAAAAAAAAAAAAAAAAAAAAAAAAAAAAAAAAAAAAAAAAAAAAAAAAAAAAAAAAAAAAAAAAAAAAAAAAAAAAAAAAAAAAAAAAAAAAAAAAAAAAAAAAAAAAAAAAAAAAAAAAAAAAAAAAAAAAAAAAAAAAAAAAAAAAAAAAAAAAAAAAAAAAAAAAAAAAAAAAAAAAAAAAAAAAAAAAAAAAAAAAAAAAAAAAAAAAAAAAAAAAAAAAAAAAAAAAAAAAAAAAAAAAAAAAAAAAAAAAAAAAAAAAAAAAAAAAAAAAAAAAAAAAAAAAAAAAAAAAAAAAAAAAAAAAAAAAAAAAAAAAAAAAAAAAAAAAAAAAAAAAAAAAAAAAAAAAAAAAAAAAAAAAAAAAAAAAAAAAAAAAAAAAAAAAAAAAAAAAAAAAAAAAAAAAAAAAAAAAAAAAAAAAAAAAAAAAAAAAAAAAAAAAAAAAAAAAAAAAAAAAAAAAAAAAAAAAAAAAAAAAAAAAAAAAAAAAAAAAAAAAAAAAAAAAAAAAAAAAAAAAAAAAAAAAAAAAAAAAAAAAAAAAAAAAAAAAAAAAAAAAAAAAAAAAAAAAAAAAAAAAAAAAAAAAAAAAAAAAAAAAAAAAAAAAAAAAAAAAAAAAAAAAAAAAAAAAAAAAAAAAAAAAAAAAAAAAAAAAAAAAAAAAAAAAAAAAAAAAAAAAAAAAAAAAAAAAAAAAAAAAAAAAAAAAAAAAAAAAAAAAAAAAAAAAAAAAAAAAAAAAAAAAAAAAAAAAAAAAAAAAAAAAAAAAAAAAAAAAAAAAAAAAAAAAAAAAAAAAAAAAAAAAAAAAAAAAAAAAAAAAAAAAAAAAAAAAAAAAAAAAAAAAAAAAAAAAAAAAAAAAAAAAAAAAAAAAAAAAAAAAAAAAAAAAAAAAAAAAAAAAAAAAAAAAAAAAAAAAAAAAAAAAAAAAAAAAAAAAAAAAAAAAAAAAAAAAAAAAAAAAAAAAAAAAAAAAAAAAAAAAAAAAAAAAAAAAAAAAAAAAAAAAAAAAAAAAAAAAAAAAAAAAAAAAAAAAAAAAAAAAAAAAAAAAAAAAAAAAAAAAAAAAAAAAAAAAAAAAAAAAAAAAAAAAAAAAAAAAAAAAAAAAAAAAAAAAAAAAAAAAAAAAAAAAAAAAAAAAAAAAAAAAAAAAAAAAAAAAAAAAAAAAAAAAAAAAAAAAAAAAAAAAAAAAAAAAAAAAAAAAAAAAAAAAAAAAAAAAAAAAAAAAAAAAAAAAAAAAAAAAAAAAAAAAAAAAAAAAAAAAAAAAAAAAAAAAAAAAAAAAAAAAAAAAAAAAAAAAAAAAAAAAAAAAAAAAAAAAAAAAAAAAAAAAAAAAAAAAAAAAAAAAAAAAAAAAAAAAAAAAAAAAAAAAAAAAAAAAAAAAAAAAAAAAAAAAAAAAAAAAAAAAAAAAAAAAAAAAAAAAAAAAAAAAAAAAAAAAAAAAAAAAAAAAAAAAAAAAAAAAAAAAAAAAAAAAAAAAAAAAAAAAAAAAAAAAAAAAAAAAAAAAAAAAAAAAAAAAAAAAAAAAAAAAAAAAAAAAAAAAAAAAAAAAAAAAAAAAAAAAAAAAAAAAAAAAAAAAAAAAAAAAAAAAAAAAAAAAAAAAAAAAAAAAAAAAAAAAAAAAAAAAAAAAAAAAAAAAAAAAAAAAAAAAAAAAAAAAAAAAAAAAAAAAAAAAAAAAAAAAAAAAAAAAAAAAAAAAAAAAAAAAAAAAAAAAAAAAAAAAAAAAAAAAAAAAAAAAAAAAAAAAAAAAAAAAAAAAAAAAAAAAAAAAAAAAAAAAAAAAAAAAAAAAAAAAAAAAAAAAAAAAAAAAAAAAAAAAAAAAAAAAAAAAAAAAAAAAAAAAAAAAAAAAAAAAAAAAAAAAAAAAAAAAAAAAAAAAAAAAAAAAAAAAAAAAAAAAAAAAAAAAAAAAAAAAAAAAAAAAAAAAAAAAAAAAAAAAAAAAAAAAAAAAAAAAAAAAAAAAAAAAAAAAAAAAAAAAAAAAAAAAAAAAAAAAAAAAAAAAAAAAAAAAAAAAAAAAAAAAAAAAAAAAAAAAAAAAAAAAAAAAAAAAAAAAAAAAAAAAAAAAAAAAAAAAAAAAAAAAAAAAAAAAAAAAAAAAAAAAAAAAAAAAAAAAAAAAAAAAAAAAAAAAAAAAAAAAAAAAAAAAAAAAAAAAAAAAAAAAAAAAAAAAAAAAAAAAAAAAAAAAAAAAAAAAAAAAAAAAAAAAAAAAAAAAAAAAAAAAAAAAAAAAAAAAAAAAAAAAAAAAAAAAAAAAAAAAAAAAAAAAAAAAAAAAAAAAAAAAAAAAAAAAAAAAAAAAAAAAAAAAAAAAAAAAAAAAAAAAAAAAAAAAAAAAAAAAAAAAAAAAAAAAAAAAAAAAAAAAAAAAAAAAAAAAAAAAAAAAAAAAAAAAAAAAAAAAAAAAAAAAAAAAAAAAAAAAAAAAAAAAAAAAAAAAAAAAAAAAAAAAAAAAAAAAAAAAAAAAAAAAAAAAAAAAAAAAAAAAAAAAAAAAAAAAAAAAAAAAAAAAAAAAAAAAAAAAAAAAAAAAAAAAAAAAAAAAAAAAAAAAAAAAAAAAAAAAAAAAAAAAAAAAAAAAAAAAAAAAAAAAAAAAAAAAAAAAAAAAAAAAAAAAAAAAAAAAAAAAAAAAAAAAAAAAAAAAAAAAAAAAAAAAAAAAAAAAAAAAAAAAAAAAAAAAAAAAAAAAAAAAAAAAAAAAAAAAAAAAAAAAAAAAAAAAAAAAAAAAAAAAAAAAAAAAAAAAAAAAAAAAAAAAAAAAAAAAAAAAAAAAAAAAAAAAAAAAAAAAAAAAAAAAAAAAAAAAAAAAAAAAAAAAAAAAAAAAAAAAAAAAAAAAAAAAAAAAAAAAAAAAAAAAAAAAAAAAAAAAAAAAAAAAAAAAAAAAAAAAAAAAAAAAAAAAAAAAAAAAAAAAAAAAAAAAAAAAAAAAAAAAAAAAAAAAAAAAAAAAAAAAAAAAAAAAAAAAAAAAAAAAAAAAAAAAAAAAAAAAAAAAAAAAAAAAAAAAAAAAAAAAAAAAAAAAAAAAAAAAAAAAAAAAAAAAAAAAAAAAAAAAAAAAAAAAAAAAAAAAAAAAAAAAAAAAAAAAAAAAAAAAAAAAAAAAAAAAAAAAAAAAAAAAAAAAAAAAAAAAAAAAAAAAAAAAAAAAAAAAAAAAAAAAAAAAAAAAAAAAAAAAAAAAAAAAAAAAAAAAAAAAAAAAAAAAAAAAAAAAAAAAAAAAAAAAAAAAAAAAAAAAAAAAAAAAAAAAAAAAAAAAAAAAAAAAAAAAAAAAAAAAAAAAAAAAAAAAAAAAAAAAAAAAAAAAAAAAAAAAAAAAAAAAAAAAAAAAAAAAAAAAAAAAAAAAAAAAAAAAAAAAAAAAAAAAAAAAAAAAAAAAAAAAAAAAAAAAAAAAAAAAAAAAAAAAAAAAAAAAAAAAAAAAAAAAAAAAAAAAAAAAAAAAAAAAAAAAAAAAAAAAAAAAAAAAAAAAAAAAAAAAAAAAAAAAAAAAAAAAAAAAAAAAAAAAAAAAAAAAAAAAAAAAAAAAAAAAAAAAAAAAAAAAAAAAAAAAAAAAAAAAAAAAAAAAAAAAAAAAAAAAAAAAAAAAAAAAAAAAAAAAAAAAAAAAAAAAAAAAAAAAAAAAAAAAAAPZYQBZODnZ8POY+6W08LGvEe08iVIeJ7Xz8kCkcbAXpJVvGc0n+cQtwC2m+WzfKNkatj8oBDS6DIuygCOn2RNpH6m4=</c2pa:manifest></metadata>
  <defs>
    <linearGradient id="cyberBg3" x1="0%" y1="0%" x2="100%" y2="100%">
      <stop offset="0%" stop-color="#7b2ff7">
        <animate attributeName="stop-color" values="#7b2ff7;#00c6ff;#ff2b6f;#ffb347;#00e5c8;#7b2ff7" dur="10s" repeatCount="indefinite"/>
      </stop>
      <stop offset="50%" stop-color="#00c6ff">
        <animate attributeName="stop-color" values="#00c6ff;#ff2b6f;#ffb347;#00e5c8;#7b2ff7;#00c6ff" dur="10s" repeatCount="indefinite"/>
      </stop>
      <stop offset="100%" stop-color="#ff2b6f">
        <animate attributeName="stop-color" values="#ff2b6f;#ffb347;#00e5c8;#7b2ff7;#00c6ff;#ff2b6f" dur="10s" repeatCount="indefinite"/>
      </stop>
    </linearGradient>

    <pattern id="grid3" width="40" height="40" patternUnits="userSpaceOnUse">
      <path d="M 40 0 L 0 0 0 40" fill="none" stroke="#a855f7" stroke-width="0.5" opacity="0.18"/>
    </pattern>

    <clipPath id="roundedFrame3">
      <rect x="0" y="0" width="900" height="360" rx="22"/>
    </clipPath>

    <filter id="glow3" x="-80%" y="-80%" width="260%" height="260%">
      <feGaussianBlur stdDeviation="4" result="b"/>
      <feMerge><feMergeNode in="b"/><feMergeNode in="SourceGraphic"/></feMerge>
    </filter>

    <radialGradient id="chipPad" cx="50%" cy="35%" r="70%">
      <stop offset="0%" stop-color="#ffffff" stop-opacity="0.30"/>
      <stop offset="100%" stop-color="#ffffff" stop-opacity="0.07"/>
    </radialGradient>
  </defs>

  <g clip-path="url(#roundedFrame3)">
    <rect width="900" height="360" fill="url(#cyberBg3)"/>
    <rect width="900" height="360" fill="url(#grid3)"/>

    <g stroke="#ffffff" stroke-width="2" opacity="0.6" fill="none">
      <path d="M 20,50 L 20,20 L 50,20"/>
      <path d="M 850,20 L 880,20 L 880,50"/>
      <path d="M 880,310 L 880,340 L 850,340"/>
      <path d="M 50,340 L 20,340 L 20,310"/>
    </g>

    <g font-family="Consolas, 'Courier New', monospace" text-anchor="middle" fill="#ffffff">
      <text x="450" y="48" font-size="28" font-weight="bold" filter="url(#glow3)">📊 GIT ACTIVITY</text>
      <text x="450" y="72" font-size="13" opacity="0.9" filter="url(#glow3)">Real commits, real repos — live numbers below in the stats section</text>
    </g>

    <!-- decorative mini contribution heatmap, purely illustrative -->
    <g id="heatmap" transform="translate(70,100)">
        <rect x="0" y="0" width="14" height="14" rx="3" fill="#6d1fc2"/>
        <rect x="0" y="18" width="14" height="14" rx="3" fill="#1a0f2e"/>
        <rect x="0" y="36" width="14" height="14" rx="3" fill="#a133f0"><animate attributeName="opacity" values="1;0.4;1" dur="3.34s" begin="0.35s" repeatCount="indefinite"/></rect>
        <rect x="0" y="54" width="14" height="14" rx="3" fill="#1a0f2e"/>
        <rect x="0" y="72" width="14" height="14" rx="3" fill="#1a0f2e"/>
        <rect x="0" y="90" width="14" height="14" rx="3" fill="#3b0a63"/>
        <rect x="0" y="108" width="14" height="14" rx="3" fill="#a133f0"><animate attributeName="opacity" values="1;0.4;1" dur="4.11s" begin="0.03s" repeatCount="indefinite"/></rect>
        <rect x="18" y="0" width="14" height="14" rx="3" fill="#6d1fc2"/>
        <rect x="18" y="18" width="14" height="14" rx="3" fill="#e879f9"><animate attributeName="opacity" values="1;0.4;1" dur="2.69s" begin="1.35s" repeatCount="indefinite"/></rect>
        <rect x="18" y="36" width="14" height="14" rx="3" fill="#1a0f2e"/>
        <rect x="18" y="54" width="14" height="14" rx="3" fill="#a133f0"><animate attributeName="opacity" values="1;0.4;1" dur="3.57s" begin="2.92s" repeatCount="indefinite"/></rect>
        <rect x="18" y="72" width="14" height="14" rx="3" fill="#e879f9"><animate attributeName="opacity" values="1;0.4;1" dur="3.6s" begin="1.51s" repeatCount="indefinite"/></rect>
        <rect x="18" y="90" width="14" height="14" rx="3" fill="#a133f0"><animate attributeName="opacity" values="1;0.4;1" dur="4.22s" begin="2.47s" repeatCount="indefinite"/></rect>
        <rect x="18" y="108" width="14" height="14" rx="3" fill="#3b0a63"/>
        <rect x="36" y="0" width="14" height="14" rx="3" fill="#1a0f2e"/>
        <rect x="36" y="18" width="14" height="14" rx="3" fill="#1a0f2e"/>
        <rect x="36" y="36" width="14" height="14" rx="3" fill="#6d1fc2"/>
        <rect x="36" y="54" width="14" height="14" rx="3" fill="#1a0f2e"/>
        <rect x="36" y="72" width="14" height="14" rx="3" fill="#6d1fc2"/>
        <rect x="36" y="90" width="14" height="14" rx="3" fill="#6d1fc2"/>
        <rect x="36" y="108" width="14" height="14" rx="3" fill="#e879f9"><animate attributeName="opacity" values="1;0.4;1" dur="3.61s" begin="2.56s" repeatCount="indefinite"/></rect>
        <rect x="54" y="0" width="14" height="14" rx="3" fill="#6d1fc2"/>
        <rect x="54" y="18" width="14" height="14" rx="3" fill="#1a0f2e"/>
        <rect x="54" y="36" width="14" height="14" rx="3" fill="#1a0f2e"/>
        <rect x="54" y="54" width="14" height="14" rx="3" fill="#a133f0"><animate attributeName="opacity" values="1;0.4;1" dur="3.81s" begin="1.26s" repeatCount="indefinite"/></rect>
        <rect x="54" y="72" width="14" height="14" rx="3" fill="#3b0a63"/>
        <rect x="54" y="90" width="14" height="14" rx="3" fill="#1a0f2e"/>
        <rect x="54" y="108" width="14" height="14" rx="3" fill="#1a0f2e"/>
        <rect x="72" y="0" width="14" height="14" rx="3" fill="#3b0a63"/>
        <rect x="72" y="18" width="14" height="14" rx="3" fill="#3b0a63"/>
        <rect x="72" y="36" width="14" height="14" rx="3" fill="#1a0f2e"/>
        <rect x="72" y="54" width="14" height="14" rx="3" fill="#3b0a63"/>
        <rect x="72" y="72" width="14" height="14" rx="3" fill="#e879f9"><animate attributeName="opacity" values="1;0.4;1" dur="4.44s" begin="2.12s" repeatCount="indefinite"/></rect>
        <rect x="72" y="90" width="14" height="14" rx="3" fill="#a133f0"><animate attributeName="opacity" values="1;0.4;1" dur="3.94s" begin="0.05s" repeatCount="indefinite"/></rect>
        <rect x="72" y="108" width="14" height="14" rx="3" fill="#6d1fc2"/>
        <rect x="90" y="0" width="14" height="14" rx="3" fill="#6d1fc2"/>
        <rect x="90" y="18" width="14" height="14" rx="3" fill="#3b0a63"/>
        <rect x="90" y="36" width="14" height="14" rx="3" fill="#1a0f2e"/>
        <rect x="90" y="54" width="14" height="14" rx="3" fill="#a133f0"><animate attributeName="opacity" values="1;0.4;1" dur="3.1s" begin="3.48s" repeatCount="indefinite"/></rect>
        <rect x="90" y="72" width="14" height="14" rx="3" fill="#6d1fc2"/>
        <rect x="90" y="90" width="14" height="14" rx="3" fill="#6d1fc2"/>
        <rect x="90" y="108" width="14" height="14" rx="3" fill="#3b0a63"/>
        <rect x="108" y="0" width="14" height="14" rx="3" fill="#1a0f2e"/>
        <rect x="108" y="18" width="14" height="14" rx="3" fill="#a133f0"><animate attributeName="opacity" values="1;0.4;1" dur="2.62s" begin="1.23s" repeatCount="indefinite"/></rect>
        <rect x="108" y="36" width="14" height="14" rx="3" fill="#a133f0"><animate attributeName="opacity" values="1;0.4;1" dur="2.67s" begin="3.79s" repeatCount="indefinite"/></rect>
        <rect x="108" y="54" width="14" height="14" rx="3" fill="#3b0a63"/>
        <rect x="108" y="72" width="14" height="14" rx="3" fill="#6d1fc2"/>
        <rect x="108" y="90" width="14" height="14" rx="3" fill="#3b0a63"/>
        <rect x="108" y="108" width="14" height="14" rx="3" fill="#3b0a63"/>
        <rect x="126" y="0" width="14" height="14" rx="3" fill="#6d1fc2"/>
        <rect x="126" y="18" width="14" height="14" rx="3" fill="#e879f9"><animate attributeName="opacity" values="1;0.4;1" dur="3.38s" begin="2.6s" repeatCount="indefinite"/></rect>
        <rect x="126" y="36" width="14" height="14" rx="3" fill="#3b0a63"/>
        <rect x="126" y="54" width="14" height="14" rx="3" fill="#1a0f2e"/>
        <rect x="126" y="72" width="14" height="14" rx="3" fill="#1a0f2e"/>
        <rect x="126" y="90" width="14" height="14" rx="3" fill="#1a0f2e"/>
        <rect x="126" y="108" width="14" height="14" rx="3" fill="#1a0f2e"/>
        <rect x="144" y="0" width="14" height="14" rx="3" fill="#1a0f2e"/>
        <rect x="144" y="18" width="14" height="14" rx="3" fill="#3b0a63"/>
        <rect x="144" y="36" width="14" height="14" rx="3" fill="#a133f0"><animate attributeName="opacity" values="1;0.4;1" dur="2.69s" begin="0.76s" repeatCount="indefinite"/></rect>
        <rect x="144" y="54" width="14" height="14" rx="3" fill="#3b0a63"/>
        <rect x="144" y="72" width="14" height="14" rx="3" fill="#6d1fc2"/>
        <rect x="144" y="90" width="14" height="14" rx="3" fill="#1a0f2e"/>
        <rect x="144" y="108" width="14" height="14" rx="3" fill="#a133f0"><animate attributeName="opacity" values="1;0.4;1" dur="2.88s" begin="0.99s" repeatCount="indefinite"/></rect>
        <rect x="162" y="0" width="14" height="14" rx="3" fill="#3b0a63"/>
        <rect x="162" y="18" width="14" height="14" rx="3" fill="#1a0f2e"/>
        <rect x="162" y="36" width="14" height="14" rx="3" fill="#a133f0"><animate attributeName="opacity" values="1;0.4;1" dur="2.6s" begin="2.2s" repeatCount="indefinite"/></rect>
        <rect x="162" y="54" width="14" height="14" rx="3" fill="#e879f9"><animate attributeName="opacity" values="1;0.4;1" dur="4.44s" begin="3.34s" repeatCount="indefinite"/></rect>
        <rect x="162" y="72" width="14" height="14" rx="3" fill="#e879f9"><animate attributeName="opacity" values="1;0.4;1" dur="2.83s" begin="3.39s" repeatCount="indefinite"/></rect>
        <rect x="162" y="90" width="14" height="14" rx="3" fill="#3b0a63"/>
        <rect x="162" y="108" width="14" height="14" rx="3" fill="#1a0f2e"/>
        <rect x="180" y="0" width="14" height="14" rx="3" fill="#1a0f2e"/>
        <rect x="180" y="18" width="14" height="14" rx="3" fill="#3b0a63"/>
        <rect x="180" y="36" width="14" height="14" rx="3" fill="#3b0a63"/>
        <rect x="180" y="54" width="14" height="14" rx="3" fill="#1a0f2e"/>
        <rect x="180" y="72" width="14" height="14" rx="3" fill="#3b0a63"/>
        <rect x="180" y="90" width="14" height="14" rx="3" fill="#3b0a63"/>
        <rect x="180" y="108" width="14" height="14" rx="3" fill="#1a0f2e"/>
        <rect x="198" y="0" width="14" height="14" rx="3" fill="#1a0f2e"/>
        <rect x="198" y="18" width="14" height="14" rx="3" fill="#1a0f2e"/>
        <rect x="198" y="36" width="14" height="14" rx="3" fill="#1a0f2e"/>
        <rect x="198" y="54" width="14" height="14" rx="3" fill="#3b0a63"/>
        <rect x="198" y="72" width="14" height="14" rx="3" fill="#e879f9"><animate attributeName="opacity" values="1;0.4;1" dur="3.93s" begin="0.82s" repeatCount="indefinite"/></rect>
        <rect x="198" y="90" width="14" height="14" rx="3" fill="#1a0f2e"/>
        <rect x="198" y="108" width="14" height="14" rx="3" fill="#1a0f2e"/>
        <rect x="216" y="0" width="14" height="14" rx="3" fill="#1a0f2e"/>
        <rect x="216" y="18" width="14" height="14" rx="3" fill="#e879f9"><animate attributeName="opacity" values="1;0.4;1" dur="2.93s" begin="0.29s" repeatCount="indefinite"/></rect>
        <rect x="216" y="36" width="14" height="14" rx="3" fill="#1a0f2e"/>
        <rect x="216" y="54" width="14" height="14" rx="3" fill="#a133f0"><animate attributeName="opacity" values="1;0.4;1" dur="2.82s" begin="1.48s" repeatCount="indefinite"/></rect>
        <rect x="216" y="72" width="14" height="14" rx="3" fill="#a133f0"><animate attributeName="opacity" values="1;0.4;1" dur="3.72s" begin="2.81s" repeatCount="indefinite"/></rect>
        <rect x="216" y="90" width="14" height="14" rx="3" fill="#e879f9"><animate attributeName="opacity" values="1;0.4;1" dur="2.52s" begin="2.62s" repeatCount="indefinite"/></rect>
        <rect x="216" y="108" width="14" height="14" rx="3" fill="#a133f0"><animate attributeName="opacity" values="1;0.4;1" dur="3.83s" begin="1.2s" repeatCount="indefinite"/></rect>
        <rect x="234" y="0" width="14" height="14" rx="3" fill="#e879f9"><animate attributeName="opacity" values="1;0.4;1" dur="2.73s" begin="0.54s" repeatCount="indefinite"/></rect>
        <rect x="234" y="18" width="14" height="14" rx="3" fill="#1a0f2e"/>
        <rect x="234" y="36" width="14" height="14" rx="3" fill="#6d1fc2"/>
        <rect x="234" y="54" width="14" height="14" rx="3" fill="#6d1fc2"/>
        <rect x="234" y="72" width="14" height="14" rx="3" fill="#a133f0"><animate attributeName="opacity" values="1;0.4;1" dur="2.68s" begin="3.38s" repeatCount="indefinite"/></rect>
        <rect x="234" y="90" width="14" height="14" rx="3" fill="#3b0a63"/>
        <rect x="234" y="108" width="14" height="14" rx="3" fill="#6d1fc2"/>
        <rect x="252" y="0" width="14" height="14" rx="3" fill="#6d1fc2"/>
        <rect x="252" y="18" width="14" height="14" rx="3" fill="#1a0f2e"/>
        <rect x="252" y="36" width="14" height="14" rx="3" fill="#a133f0"><animate attributeName="opacity" values="1;0.4;1" dur="4.17s" begin="2.18s" repeatCount="indefinite"/></rect>
        <rect x="252" y="54" width="14" height="14" rx="3" fill="#3b0a63"/>
        <rect x="252" y="72" width="14" height="14" rx="3" fill="#1a0f2e"/>
        <rect x="252" y="90" width="14" height="14" rx="3" fill="#a133f0"><animate attributeName="opacity" values="1;0.4;1" dur="2.92s" begin="3.6s" repeatCount="indefinite"/></rect>
        <rect x="252" y="108" width="14" height="14" rx="3" fill="#1a0f2e"/>
        <rect x="270" y="0" width="14" height="14" rx="3" fill="#a133f0"><animate attributeName="opacity" values="1;0.4;1" dur="3.74s" begin="1.63s" repeatCount="indefinite"/></rect>
        <rect x="270" y="18" width="14" height="14" rx="3" fill="#1a0f2e"/>
        <rect x="270" y="36" width="14" height="14" rx="3" fill="#e879f9"><animate attributeName="opacity" values="1;0.4;1" dur="4.26s" begin="3.24s" repeatCount="indefinite"/></rect>
        <rect x="270" y="54" width="14" height="14" rx="3" fill="#1a0f2e"/>
        <rect x="270" y="72" width="14" height="14" rx="3" fill="#e879f9"><animate attributeName="opacity" values="1;0.4;1" dur="4.23s" begin="3.21s" repeatCount="indefinite"/></rect>
        <rect x="270" y="90" width="14" height="14" rx="3" fill="#a133f0"><animate attributeName="opacity" values="1;0.4;1" dur="4.07s" begin="1.07s" repeatCount="indefinite"/></rect>
        <rect x="270" y="108" width="14" height="14" rx="3" fill="#1a0f2e"/>
        <rect x="288" y="0" width="14" height="14" rx="3" fill="#1a0f2e"/>
        <rect x="288" y="18" width="14" height="14" rx="3" fill="#1a0f2e"/>
        <rect x="288" y="36" width="14" height="14" rx="3" fill="#1a0f2e"/>
        <rect x="288" y="54" width="14" height="14" rx="3" fill="#a133f0"><animate attributeName="opacity" values="1;0.4;1" dur="3.06s" begin="3.87s" repeatCount="indefinite"/></rect>
        <rect x="288" y="72" width="14" height="14" rx="3" fill="#6d1fc2"/>
        <rect x="288" y="90" width="14" height="14" rx="3" fill="#3b0a63"/>
        <rect x="288" y="108" width="14" height="14" rx="3" fill="#e879f9"><animate attributeName="opacity" values="1;0.4;1" dur="4.43s" begin="0.71s" repeatCount="indefinite"/></rect>
        <rect x="306" y="0" width="14" height="14" rx="3" fill="#1a0f2e"/>
        <rect x="306" y="18" width="14" height="14" rx="3" fill="#6d1fc2"/>
        <rect x="306" y="36" width="14" height="14" rx="3" fill="#3b0a63"/>
        <rect x="306" y="54" width="14" height="14" rx="3" fill="#1a0f2e"/>
        <rect x="306" y="72" width="14" height="14" rx="3" fill="#e879f9"><animate attributeName="opacity" values="1;0.4;1" dur="3.94s" begin="2.15s" repeatCount="indefinite"/></rect>
        <rect x="306" y="90" width="14" height="14" rx="3" fill="#6d1fc2"/>
        <rect x="306" y="108" width="14" height="14" rx="3" fill="#1a0f2e"/>
        <rect x="324" y="0" width="14" height="14" rx="3" fill="#1a0f2e"/>
        <rect x="324" y="18" width="14" height="14" rx="3" fill="#1a0f2e"/>
        <rect x="324" y="36" width="14" height="14" rx="3" fill="#3b0a63"/>
        <rect x="324" y="54" width="14" height="14" rx="3" fill="#3b0a63"/>
        <rect x="324" y="72" width="14" height="14" rx="3" fill="#a133f0"><animate attributeName="opacity" values="1;0.4;1" dur="3.1s" begin="2.46s" repeatCount="indefinite"/></rect>
        <rect x="324" y="90" width="14" height="14" rx="3" fill="#3b0a63"/>
        <rect x="324" y="108" width="14" height="14" rx="3" fill="#3b0a63"/>
        <rect x="342" y="0" width="14" height="14" rx="3" fill="#3b0a63"/>
        <rect x="342" y="18" width="14" height="14" rx="3" fill="#3b0a63"/>
        <rect x="342" y="36" width="14" height="14" rx="3" fill="#1a0f2e"/>
        <rect x="342" y="54" width="14" height="14" rx="3" fill="#6d1fc2"/>
        <rect x="342" y="72" width="14" height="14" rx="3" fill="#6d1fc2"/>
        <rect x="342" y="90" width="14" height="14" rx="3" fill="#1a0f2e"/>
        <rect x="342" y="108" width="14" height="14" rx="3" fill="#3b0a63"/>
      </g>

    <!-- 4 stat category chips, floating -->
    <g font-family="Consolas, monospace" text-anchor="middle" fill="#ffffff">

      <g transform="translate(180,290)">
        <g><animateTransform attributeName="transform" type="translate" values="0,0;0,-8;0,0" dur="2.6s" begin="0s" repeatCount="indefinite"/>
          <circle r="30" fill="url(#chipPad)" filter="url(#glow3)"/>
          <text y="7" font-size="22">📁</text>
        </g>
        <text y="52" font-size="14" font-weight="bold" filter="url(#glow3)">Repos</text>
      </g>

      <g transform="translate(360,290)">
        <g><animateTransform attributeName="transform" type="translate" values="0,0;0,-8;0,0" dur="2.6s" begin="0.4s" repeatCount="indefinite"/>
          <circle r="30" fill="url(#chipPad)" filter="url(#glow3)"/>
          <text y="7" font-size="22">💾</text>
        </g>
        <text y="52" font-size="14" font-weight="bold" filter="url(#glow3)">Commits</text>
      </g>

      <g transform="translate(540,290)">
        <g><animateTransform attributeName="transform" type="translate" values="0,0;0,-8;0,0" dur="2.6s" begin="0.8s" repeatCount="indefinite"/>
          <circle r="30" fill="url(#chipPad)" filter="url(#glow3)"/>
          <text y="7" font-size="22">⭐</text>
        </g>
        <text y="52" font-size="14" font-weight="bold" filter="url(#glow3)">Stars</text>
      </g>

      <g transform="translate(720,290)">
        <g><animateTransform attributeName="transform" type="translate" values="0,0;0,-8;0,0" dur="2.6s" begin="1.2s" repeatCount="indefinite"/>
          <circle r="30" fill="url(#chipPad)" filter="url(#glow3)"/>
          <text y="8" font-size="24">🔥
            <animate attributeName="opacity" values="1;0.6;1" dur="1.1s" repeatCount="indefinite"/>
          </text>
        </g>
        <text y="52" font-size="14" font-weight="bold" filter="url(#glow3)">Streak</text>
      </g>
    </g>
  </g>
</svg>
